<svg xmlns="http://www.w3.org/2000/svg" xmlns:xlink="http://www.w3.org/1999/xlink" version="1.1" x="0px" y="0px" viewBox="0 0 100 125" style="enable-background:new 0 0 100 100;" xml:space="preserve">
    <g>
        <path style="fill: rgb(254, 225, 255);" d="M80,29.3c1.3-1.6,1.5-2.8,0-4.3c-1.7-1.7-3.4-3.4-5.1-5.1c-1.2-1.1-2.3-1.2-3.6,0c-2.8,2.6-6.1,3.3-9.6,1.9   c-3.4-1.3-4.9-4.1-5.2-7.7C56.3,13,55.3,12,54.7,11c-3.1,0-6.2,0-9.4,0c-0.5,1.1-1.4,2.2-1.5,3.3c-0.9,7.1-8.3,10.4-13.9,6   c-2.2-1.8-3.8-1.5-5.6,0.3c-1.4,1.4-2.8,2.8-4.2,4.3c-1.3,1.3-1.4,2.7-0.1,4.1c2.5,2.7,3.2,5.9,1.8,9.4c-1.4,3.5-4.3,5-8,5.1   c-1.8,0-2.7,1.1-2.8,2.8c-0.1,2.4-0.1,4.9,0,7.3c0.1,1.7,1,2.7,2.8,2.8C21.9,56.6,25,66,19.8,71c-1.2,1.2-1.2,2.4-0.1,3.7   c1.1,1.1,2.1,2.3,3.2,3.4c3.4,3.3,3.4,3.3,7.4,0.8c5.4-3.5,12.4-0.2,13.1,6.1c0.4,3.5,0.8,3.9,4.4,4c0.9,0,1.7,0,2.6,0   c5,0,5,0,6.1-4.6c1.6-6.2,8.6-8.7,13.7-4.6c2.1,1.7,3.6,1.6,5.4-0.2c1.4-1.5,2.9-3,4.4-4.4c1.3-1.4,1.3-2.7,0-4.1   c-2.6-2.8-3.2-6.1-1.6-9.6c1.4-3.2,4.1-4.6,7.7-4.9c1.1-0.1,2.1-1.2,3.1-1.8c0-3.1,0-6.2,0-9.4c-1.2-0.5-2.3-1.4-3.6-1.6   C77.9,42.3,75.1,35.2,80,29.3z M50,63.1c-7.3-0.1-13.1-6-13-13.1c0.1-6.9,6.2-13,12.8-12.8C57.5,37.4,63.1,43,63,50.3   C62.9,57.4,57,63.2,50,63.1z"/>
    </g>
</svg>